<svg width="125" height="81" viewBox="0 0 125 81" fill="none" xmlns="http://www.w3.org/2000/svg">
<g clip-path="url(#clip0_91_343)">
<path d="M3.80469 39.918H48.6169C50.8394 38.5586 53.559 36.3967 55.663 33.1505H32.9147C30.6241 34.1719 27.7745 34.7792 24.3599 34.7663V33.1505H3.80469V39.918Z" fill="white"/>
<path d="M3.80309 71.0412C3.80309 73.5109 2.56719 74.5956 1.50391 75.0723H26.5082C24.4489 74.0093 24.3494 71.0381 24.3494 71.0381L24.3504 68.1177H3.80309V71.0412Z" fill="white"/>
<path d="M24.3599 15.6547H3.80469V22.4219H24.3599V15.6547Z" fill="white"/>
<path d="M3.80469 41.8992V48.6387H24.3593L24.3599 47.2712C24.6545 46.9582 25.5115 47.9387 26.0635 48.6387H37.818V46.7106C37.818 45.1346 39.0135 43.8531 40.4832 43.8531H45.938L44.5724 41.8992H3.80469Z" fill="white"/>
<path d="M24.3589 50.6218H3.80469V57.3887H24.3559L24.3589 50.6218Z" fill="white"/>
<path d="M58.8253 24.4072H39.8808C39.6229 26.8834 38.3742 29.2947 36.1367 31.168H56.7935C57.7523 29.2409 58.4836 27.0008 58.8253 24.4072Z" fill="white"/>
<path d="M3.80469 66.1328H24.3528L24.3556 59.3721H3.80469V66.1328Z" fill="white"/>
<path d="M3.80469 31.168H24.3599V24.4072H3.80469V31.168Z" fill="white"/>
<path d="M64.9375 71.0381L62.896 68.1177H40.7739L46.0255 75.0723H70.0308C66.6601 74.0093 64.9375 71.0381 64.9375 71.0381Z" fill="white"/>
<path d="M37.8157 50.6218H27.563L32.6729 57.3887H37.8157V50.6218Z" fill="white"/>
<path d="M37.8167 59.3737H34.1714L37.8167 64.2012V59.3737Z" fill="white"/>
<path d="M50.4922 80.9863H72.4695V77.0546H47.5234L50.4922 80.9863Z" fill="white"/>
<path d="M39.8766 22.4219H59.004C59.1193 20.127 58.702 17.82 57.9998 15.6547H36.1025C38.3497 17.5321 39.6068 19.9464 39.8766 22.4219Z" fill="white"/>
<path d="M0 80.9863H28.1534V77.0546H0V80.9863Z" fill="white"/>
<path d="M3.8021 11.4498V13.6719H24.3573V12.0219C27.7597 12.0266 30.5999 12.6457 32.8871 13.6719H57.2404C55.9777 10.8316 54.1876 8.62238 52.2046 6.90403H1.82715C4.0693 8.09493 3.8021 11.4498 3.8021 11.4498Z" fill="white"/>
<path d="M38.2004 0.985126H0V4.92188H49.5239C44.0222 1.4554 38.2004 0.985126 38.2004 0.985126Z" fill="white"/>
<path fill-rule="evenodd" clip-rule="evenodd" d="M120.666 59.9221C120.454 60.3813 120.158 60.7756 119.782 61.1048C119.403 61.4338 118.953 61.6895 118.431 61.8749C117.908 62.0586 117.336 62.1506 116.72 62.1506C115.917 62.1506 115.214 62.0393 114.616 61.8151C114.015 61.5921 113.514 61.2785 113.11 60.8806C112.704 60.4776 112.398 60.0009 112.188 59.4451C111.978 58.8909 111.862 58.2809 111.845 57.6174H113.878C113.914 58.0441 114.01 58.4132 114.171 58.7251C114.331 59.0417 114.535 59.2995 114.782 59.5053C115.028 59.7107 115.311 59.8615 115.629 59.958C115.947 60.0554 116.286 60.1067 116.646 60.1067C116.988 60.1067 117.298 60.069 117.579 59.9935C117.86 59.9204 118.102 59.8176 118.302 59.6832C118.502 59.5483 118.655 59.3838 118.764 59.1896C118.873 58.9924 118.926 58.7734 118.926 58.5346C118.926 58.2859 118.873 58.0752 118.767 57.9003C118.66 57.7274 118.488 57.571 118.253 57.4337C118.016 57.2967 117.705 57.1722 117.322 57.0588C116.935 56.9455 116.462 56.8302 115.9 56.7083C115.258 56.5541 114.704 56.3774 114.242 56.1737C113.777 55.9729 113.396 55.7319 113.098 55.4548C112.799 55.1795 112.579 54.8614 112.435 54.4988C112.292 54.1384 112.222 53.7233 112.222 53.2537C112.222 52.7496 112.32 52.2851 112.516 51.8594C112.713 51.4359 112.993 51.0691 113.359 50.762C113.719 50.4551 114.154 50.2149 114.657 50.04C115.159 49.8671 115.72 49.7778 116.336 49.7778C116.978 49.7778 117.564 49.8722 118.094 50.0586C118.626 50.2477 119.082 50.514 119.466 50.8638C119.85 51.215 120.154 51.644 120.373 52.1531C120.592 52.6606 120.709 53.2372 120.724 53.8792H118.711C118.565 52.5148 117.791 51.8323 116.395 51.8323C115.715 51.8323 115.195 51.9573 114.833 52.1991C114.474 52.4444 114.293 52.782 114.293 53.2077C114.293 53.3812 114.333 53.5348 114.412 53.6607C114.49 53.7903 114.616 53.9087 114.79 54.0167C114.962 54.1259 115.185 54.2244 115.454 54.3133C115.727 54.4023 116.056 54.4886 116.44 54.5755C116.776 54.648 117.12 54.7295 117.473 54.8204C117.824 54.9098 118.17 55.0177 118.509 55.1446C118.847 55.2715 119.166 55.4255 119.464 55.6061C119.762 55.7861 120.025 56.0073 120.251 56.2661C120.479 56.522 120.656 56.8271 120.788 57.1783C120.918 57.5281 120.984 57.9378 120.984 58.4077C120.984 58.9603 120.878 59.4639 120.666 59.9221ZM109.198 61.9621H107.162V54.2808L104.742 61.9621H102.982L100.576 54.2808V61.9621H98.5477V49.9689H101.271L103.871 58.5177L106.482 49.9689H109.198V61.9621ZM95.8516 61.9621H87.2636V49.9689H95.6056V52.0292H89.3611V54.74H95.2073V56.7862H89.3611V59.8992H95.8516V61.9621ZM85.0996 52.0292H81.6057V61.9621H79.5045V52.0292H76.0258V49.9689H85.0996V52.0292ZM73.9274 59.9221C73.7155 60.3813 73.4197 60.7756 73.0436 61.1048C72.6647 61.4338 72.2152 61.6895 71.6928 61.8749C71.1691 62.0586 70.5989 62.1506 69.982 62.1506C69.1776 62.1506 68.4758 62.0393 67.8768 61.8151C67.2759 61.5921 66.7754 61.2785 66.3718 60.8806C65.9654 60.4776 65.6596 60.0009 65.4495 59.4451C65.2398 58.8909 65.1238 58.2809 65.1059 57.6174H67.1396C67.1749 58.0441 67.2703 58.4132 67.4332 58.7251C67.5923 59.0417 67.7964 59.2995 68.0437 59.5053C68.2892 59.7107 68.5724 59.8615 68.8903 59.958C69.2086 60.0554 69.5472 60.1067 69.9086 60.1067C70.2493 60.1067 70.5595 60.069 70.8405 59.9935C71.1213 59.9204 71.3626 59.8176 71.563 59.6832C71.7634 59.5483 71.9166 59.3838 72.0257 59.1896C72.1345 58.9924 72.1873 58.7734 72.1873 58.5346C72.1873 58.2859 72.1345 58.0752 72.0282 57.9003C71.9222 57.7274 71.7497 57.571 71.5149 57.4337C71.2782 57.2967 70.9668 57.1722 70.5829 57.0588C70.1962 56.9455 69.7238 56.8302 69.1611 56.7083C68.5192 56.5541 67.9653 56.3774 67.5038 56.1737C67.0383 55.9729 66.6575 55.7319 66.359 55.4548C66.0604 55.1795 65.8416 54.8614 65.6971 54.4988C65.5536 54.1384 65.483 53.7233 65.483 53.2537C65.483 52.7496 65.5811 52.2851 65.7775 51.8594C65.9751 51.4359 66.2558 51.0691 66.6194 50.762C66.9814 50.4551 67.4153 50.2149 67.9184 50.04C68.4208 49.8671 68.9807 49.7778 69.5972 49.7778C70.2393 49.7778 70.8246 49.8722 71.3558 50.0586C71.8869 50.2477 72.3437 50.514 72.7276 50.8638C73.1115 51.215 73.4147 51.644 73.6348 52.1531C73.8546 52.6606 73.9706 53.2372 73.9865 53.8792H71.9726C71.8263 52.5148 71.0522 51.8323 69.6563 51.8323C68.9766 51.8323 68.4564 51.9573 68.0947 52.1991C67.7358 52.4444 67.5542 52.782 67.5542 53.2077C67.5542 53.3812 67.5942 53.5348 67.673 53.6607C67.7514 53.7903 67.8768 53.9087 68.0519 54.0167C68.2235 54.1259 68.4455 54.2244 68.7156 54.3133C68.9885 54.4023 69.3174 54.4886 69.7013 54.5755C70.0371 54.648 70.381 54.7295 70.7345 54.8204C71.0856 54.9098 71.4314 55.0177 71.77 55.1446C72.1089 55.2715 72.4271 55.4255 72.7257 55.6061C73.023 55.7861 73.2853 56.0073 73.5129 56.2661C73.7408 56.522 73.9178 56.8271 74.0491 57.1783C74.1807 57.5281 74.2454 57.9378 74.2454 58.4077C74.2454 58.9603 74.1394 59.4639 73.9274 59.9221ZM59.5292 56.9211V61.9621H57.4349V56.9211L52.979 49.9689H55.5179L58.486 54.8259L61.4366 49.9689H63.9752L59.5292 56.9211ZM51.4205 59.9221C51.2089 60.3813 50.9131 60.7756 50.537 61.1048C50.1581 61.4338 49.7083 61.6895 49.1855 61.8749C48.6625 62.0586 48.0917 62.1506 47.4748 62.1506C46.672 62.1506 45.9698 62.0393 45.3708 61.8151C44.7693 61.5921 44.2694 61.2785 43.8649 60.8806C43.4588 60.4776 43.1527 60.0009 42.9429 59.4451C42.7335 58.8909 42.6172 58.2809 42.5994 57.6174H44.6333C44.6683 58.0441 44.7643 58.4132 44.9266 58.7251C45.0857 59.0417 45.2902 59.2995 45.5378 59.5053C45.7826 59.7107 46.0655 59.8615 46.3841 59.958C46.7023 60.0554 47.0406 60.1067 47.4017 60.1067C47.7434 60.1067 48.0532 60.069 48.3339 59.9935C48.6147 59.9204 48.857 59.8176 49.0564 59.6832C49.2562 59.5483 49.4103 59.3838 49.5188 59.1896C49.6273 58.9924 49.6808 58.7734 49.6808 58.5346C49.6808 58.2859 49.6273 58.0752 49.5213 57.9003C49.415 57.7274 49.2434 57.571 49.0089 57.4337C48.7713 57.2967 48.4602 57.1722 48.0763 57.0588C47.6902 56.9455 47.2178 56.8302 46.6542 56.7083C46.0127 56.5541 45.4593 56.3774 44.9972 56.1737C44.532 55.9729 44.1506 55.7319 43.8527 55.4548C43.5548 55.1795 43.3347 54.8614 43.1909 54.4988C43.0464 54.1384 42.9761 53.7233 42.9761 53.2537C42.9761 52.7496 43.0746 52.2851 43.2715 51.8594C43.4688 51.4359 43.7489 51.0691 44.1128 50.762C44.4739 50.4551 44.9088 50.2149 45.4112 50.04C45.9139 49.8671 46.475 49.7778 47.0909 49.7778C47.7324 49.7778 48.3186 49.8722 48.8492 50.0586C49.38 50.2477 49.8368 50.514 50.2207 50.8638C50.6049 51.215 50.9081 51.644 51.1282 52.1531C51.3477 52.6606 51.464 53.2372 51.4793 53.8792H49.4657C49.319 52.5148 48.5462 51.8323 47.1488 51.8323C46.4694 51.8323 45.9489 51.9573 45.5881 52.1991C45.2295 52.4444 45.0479 52.782 45.0479 53.2077C45.0479 53.3812 45.0882 53.5348 45.1664 53.6607C45.2445 53.7903 45.3708 53.9087 45.545 54.0167C45.7169 54.1259 45.9392 54.2244 46.2093 54.3133C46.4822 54.4023 46.8108 54.4886 47.1947 54.5755C47.5311 54.648 47.8744 54.7295 48.228 54.8204C48.5794 54.9098 48.9254 55.0177 49.2634 55.1446C49.6023 55.2715 49.9205 55.4255 50.2185 55.6061C50.5164 55.7861 50.78 56.0073 51.0069 56.2661C51.2342 56.522 51.4108 56.8271 51.5425 57.1783C51.6735 57.5281 51.7394 57.9378 51.7394 58.4077C51.7394 58.9603 51.6334 59.4639 51.4205 59.9221ZM123.897 45.5463H40.4819C39.8757 45.5463 39.3799 46.0711 39.3799 46.7122V64.9517C39.3799 65.5928 39.8757 66.1172 40.4819 66.1172H123.897C124.504 66.1172 125 65.5928 125 64.9517V46.7122C125 46.0711 124.504 45.5463 123.897 45.5463Z" fill="white"/>
</g>
<defs>
<clipPath id="clip0_91_343">
<rect width="125" height="81" fill="white"/>
</clipPath>
</defs>
</svg>
